# xmcd
#
# Track frame offsets:
#	150
#	19165
#	35180
#	56512
#	78703
#	103186
#	126629
#	154406
#	178141
#	197061
#	213014
#	231459
#	248504
#	266360
#	285048
#	309355
#
# Disc length: 4341 seconds
#
# Revision: 1
# Processed by: cddbd v1.5.2PL0 Copyright (c) Steve Scherf et al.
# Submitted via: audiograbber 1.83.01
#
DISCID=e310f310
DTITLE=Jim Suhler and Monkey Beat  - Tijuana Bible
DYEAR=2009
DGENRE=Blues-Rock
TTITLE0=Tijuana Bible 
TTITLE1=Devil in Me 
TTITLE2=Drunken Hearted Boy 
TTITLE3=Up to My Neck in You 
TTITLE4=Long Hot Summer 
TTITLE5=Black Sky 
TTITLE6=Deep Water Lullaby 
TTITLE7=Years of Tears 
TTITLE8=Po' Lightnin 
TTITLE9=Border Rock 
TTITLE10=Mexicali Run 
TTITLE11=Sunday Drunk 
TTITLE12=Chaos in Tejas 
TTITLE13=Juice
TTITLE14=I Could've Had Religion 
TTITLE15=Cold Light of Day 
EXTD=
EXTT0=
EXTT1=
EXTT2=
EXTT3=
EXTT4=
EXTT5=
EXTT6=
EXTT7=
EXTT8=
EXTT9=
EXTT10=
EXTT11=
EXTT12=
EXTT13=
EXTT14=
EXTT15=
PLAYORDER=
